<?xml version="1.0" standalone="no"?><!DOCTYPE svg PUBLIC "-//W3C//DTD SVG 1.1//EN" "http://www.w3.org/Graphics/SVG/1.1/DTD/svg11.dtd"><svg t="1610461185171" class="icon" viewBox="0 0 1024 1024" version="1.1" xmlns="http://www.w3.org/2000/svg" p-id="3377" xmlns:xlink="http://www.w3.org/1999/xlink" width="32" height="32"><defs><style type="text/css"></style></defs><path d="M848.726485 270.950929L545.229026 0h-33.101058L208.673165 270.950929v9.299009h640.05332v-9.299009zM529.062401 223.688078a53.106723 53.106723 0 1 1 0-106.213447 53.106723 53.106723 0 0 1 0 106.213447zM165.590602 931.05257c50.547363 3.284512 105.019079-35.404482 126.77364-52.808131 21.925185 16.507873 76.012997 53.021411 124.939432 53.021411h0.298592c46.025827-0.127968 89.620262-34.380738 110.820295-53.959843 15.526785 19.920353 47.988003 51.187203 99.687078 53.959843 53.703907 2.729984 92.392902-29.34733 110.649671-48.585187 18.725985 18.214113 57.585604 48.755811 107.535783 48.755811h2.943264c70.723652-1.748896 118.626343-60.61418 120.631176-63.088228a14.886945 14.886945 0 1 0-23.290178-18.598017c-0.42656 0.511872-41.077731 50.547363-98.06615 51.912355h-2.218112c-55.111555 0-95.976006-50.163459-96.402566-50.675331a14.545697 14.545697 0 0 0-12.071649-5.630592 15.142881 15.142881 0 0 0-11.730401 6.270432c-0.383904 0.554528-38.51837 52.978755-96.402566 49.864867-57.542948-3.071232-84.672165-52.381571-85.823877-54.386403a14.972257 14.972257 0 0 0-24.271266-3.028576c-0.554528 0.554528-52.338915 57.244356-102.11847 57.372323h-0.21328c-50.888611 0-115.000583-53.277347-115.640423-53.831875a14.972257 14.972257 0 0 0-19.621761 0.341248c-0.63984 0.597184-63.258852 56.476548-114.574024 53.362659-50.888611-3.241856-89.577606-51.059235-89.918853-51.571107a14.929601 14.929601 0 0 0-23.37549 18.512705c1.91952 2.388736 47.134883 58.69466 111.460135 62.789636z" fill="#1afa29" p-id="3378"></path><path d="M946.536699 942.015163c-0.42656 0.511872-41.077731 50.504707-98.06615 51.912355h-2.218112c-55.111555 0-95.976006-50.163459-96.402566-50.675331a14.929601 14.929601 0 0 0-23.80205 0.63984c-0.383904 0.554528-38.51837 52.936099-96.402566 49.822211-57.542948-3.028576-84.672165-52.338915-85.823877-54.343747a14.801633 14.801633 0 0 0-11.346497-7.848705 15.057569 15.057569 0 0 0-12.924769 4.777473c-0.554528 0.597184-52.338915 57.244356-102.11847 57.372323h-0.21328c-50.888611 0-115.000583-53.277347-115.640423-53.831875a15.014913 15.014913 0 0 0-19.621761 0.383904c-0.63984 0.597184-63.258852 56.433892-114.574024 53.320003-50.888611-3.241856-89.577606-51.059235-89.918853-51.528451a14.929601 14.929601 0 0 0-23.37549 18.470049c1.876864 2.431392 47.092227 58.69466 111.417479 62.832292 50.547363 3.284512 105.019079-35.404482 126.77364-52.808131 21.925185 16.465217 76.012997 52.978755 124.939432 52.978755h0.298592c46.025827-0.127968 89.620262-34.338082 110.820295-53.959843 15.526785 19.920353 47.988003 51.187203 99.687078 53.959843 53.703907 2.729984 92.392902-29.304674 110.649671-48.585187 18.768641 18.299425 57.585604 48.841123 107.535783 48.841123l2.943264-0.042656c70.723652-1.70624 118.626343-60.571524 120.631176-63.088228a14.844289 14.844289 0 1 0-23.247522-18.598017zM519.592768 829.14738a14.929601 14.929601 0 0 1 24.271266 3.028576c0.85312 1.535616 16.891777 30.584354 49.950179 45.599267v-167.766059h200.739149V327.214196H258.836624v382.837624h200.696493v164.993419c33.229026-16.635841 59.675748-45.513955 60.059651-45.897859z m-199.203532-397.511289h412.611514v143.964009H320.389236v-143.964009zM528.806465 877.775223l-0.42656-0.469216-0.511872 0.469216z" fill="#1afa29" p-id="3379"></path></svg>