<?xml version="1.0" standalone="no"?><!DOCTYPE svg PUBLIC "-//W3C//DTD SVG 1.1//EN" "http://www.w3.org/Graphics/SVG/1.1/DTD/svg11.dtd"><svg t="1610585883169" class="icon" viewBox="0 0 1170 1024" version="1.1" xmlns="http://www.w3.org/2000/svg" p-id="2450" xmlns:xlink="http://www.w3.org/1999/xlink" width="36.5625" height="32"><defs><style type="text/css"></style></defs><path d="M354.652923 495.488735l-42.069798 33.927257a33.173318 33.173318 0 0 1-42.522162 0l-42.069798-33.927257a123.495214 123.495214 0 0 0-156.065381 0L16.888234 539.82035a45.236342 45.236342 0 1 0 56.847004 70.417907l55.03755-44.331616a33.324105 33.324105 0 0 1 42.522161 0l42.069798 33.927257a123.495214 123.495214 0 0 0 156.065381 0l42.069798-33.927257a45.236342 45.236342 0 1 0-56.847003-70.417906zM354.652923 672.664409l-42.069798 33.927256a33.173318 33.173318 0 0 1-42.522162 0l-42.069798-33.927256a123.495214 123.495214 0 0 0-156.065381 0l-55.03755 44.331615a45.236342 45.236342 0 1 0 56.847004 70.417906l54.886762-44.180827a33.324105 33.324105 0 0 1 42.522161 0l42.069799 33.927256a123.495214 123.495214 0 0 0 156.06538 0l42.069799-33.927256a45.2665 45.2665 0 1 0-56.696216-70.568694zM354.652923 849.99087l-42.069798 33.927257a33.173318 33.173318 0 0 1-42.522162 0l-42.069798-33.927257a123.495214 123.495214 0 0 0-156.065381 0l-55.03755 44.03004a45.236342 45.236342 0 1 0 56.847004 70.417906l55.03755-44.331615a33.324105 33.324105 0 0 1 42.522161 0l42.069798 33.927256a123.495214 123.495214 0 0 0 156.065381 0l42.069798-33.927256a45.236342 45.236342 0 1 0-56.847003-70.116331zM354.652923 318.162274l-42.069798 33.927256a33.173318 33.173318 0 0 1-42.522162 0l-42.069798-33.927256a123.495214 123.495214 0 0 0-156.065381 0l-55.03755 44.331615a45.236342 45.236342 0 1 0 56.847004 70.417906l55.03755-44.331615a33.173318 33.173318 0 0 1 42.522161 0l42.069798 33.927256a123.495214 123.495214 0 0 0 156.065381 0l42.069798-33.927256a45.236342 45.236342 0 1 0-56.847003-70.417906zM354.652923 140.9866l-42.069798 33.927257a33.173318 33.173318 0 0 1-42.522162 0l-42.069798-33.927257a123.495214 123.495214 0 0 0-156.065381 0l-55.03755 44.331615a45.236342 45.236342 0 1 0 56.847004 70.417906l55.03755-44.331615a33.324105 33.324105 0 0 1 42.522161 0l42.069798 33.927257a123.495214 123.495214 0 0 0 156.065381 0l42.069798-33.927257a45.236342 45.236342 0 1 0-56.847003-70.417906zM1116.13135 806.71477a88.663231 88.663231 0 0 0 12.967752-46.14107v-45.990281a89.41717 89.41717 0 0 0-53.982035-82.028567 88.663231 88.663231 0 0 0 12.967751-46.141069v-46.141069a89.41717 89.41717 0 0 0-53.982035-82.028567 88.663231 88.663231 0 0 0 12.967752-46.141069v-45.839494a89.41717 89.41717 0 0 0-53.982036-82.028567 88.663231 88.663231 0 0 0 12.967752-46.141069v-46.141069a89.41717 89.41717 0 0 0-89.266382-89.266382h-126.661758v-13.420115A89.41717 89.41717 0 0 0 700.861729 0h-128.018849a89.41717 89.41717 0 0 0-89.266382 89.266382v46.141069a89.115594 89.115594 0 0 0 37.244589 72.378148 89.115594 89.115594 0 0 0-37.244589 72.378147v46.141069a89.266382 89.266382 0 0 0 50.815491 80.369902h-46.74422l-8.142541 615.063466h449.347666v-1.206303a88.814019 88.814019 0 0 0 24.126049 3.46812h128.018848a89.41717 89.41717 0 0 0 89.266382-89.266382v-46.141069a89.41717 89.41717 0 0 0-54.132823-81.877779z m-62.426152-46.14107a13.872478 13.872478 0 0 1-13.872478 13.872479h-128.018849a13.872478 13.872478 0 0 1-13.872478-13.872479v-45.990281a13.872478 13.872478 0 0 1 13.872478-13.872478h128.018849a13.872478 13.872478 0 0 1 13.872478 13.872478v46.141069z m-41.014284-174.159917a13.872478 13.872478 0 0 1-13.872478 13.872478h-128.018848a13.872478 13.872478 0 0 1-13.872479-13.872478v-46.141069a13.872478 13.872478 0 0 1 13.872479-13.872478h127.86806a13.872478 13.872478 0 0 1 13.872479 13.872478v46.141069z m-41.014283-174.159918a13.872478 13.872478 0 0 1-13.872478 13.872479h-128.018849a13.872478 13.872478 0 0 1-13.872478-13.872479v-45.990281a13.872478 13.872478 0 0 1 13.872478-13.872478h128.018849a13.872478 13.872478 0 0 1 13.872478 13.872478v46.141069z m-271.418053-145.811809a13.420115 13.420115 0 0 1 3.618907 0 89.115594 89.115594 0 0 0 10.253571 20.808717v38.450891a13.872478 13.872478 0 0 1-13.872478 13.872478h-128.018849a13.872478 13.872478 0 0 1-13.872478-13.872478v-45.38713a13.872478 13.872478 0 0 1 13.872478-13.872478h128.018849z m229.800618-74.489177v46.141069a13.872478 13.872478 0 0 1-13.872478 13.872478h-128.018849a13.420115 13.420115 0 0 1-3.618907 0 89.115594 89.115594 0 0 0-10.253571-20.808717v-38.450891a13.872478 13.872478 0 0 1 13.872478-13.872478h128.018849a13.872478 13.872478 0 0 1 14.475629 13.118539zM558.216463 89.266382a13.872478 13.872478 0 0 1 13.872478-13.872478h128.018849a13.872478 13.872478 0 0 1 13.872478 13.872478v46.141069a13.872478 13.872478 0 0 1-13.872478 13.872478h-128.018849a13.872478 13.872478 0 0 1-13.872478-13.872478V89.266382z m180.945369 316.654395h0.150788zM554.597556 946.193491l6.785451-463.974083h182.90561l92.131351 464.275659H555.803858z m538.915623-11.761449a13.872478 13.872478 0 0 1-13.872478 13.872479h-126.209395a13.872478 13.872478 0 0 1-13.872478-13.872479v-46.141069a13.872478 13.872478 0 0 1 13.872478-13.872478h128.018849a13.872478 13.872478 0 0 1 13.872478 13.872478v46.141069z" p-id="2451" fill="#1afa29"></path></svg>