<?xml version="1.0" standalone="no"?><!DOCTYPE svg PUBLIC "-//W3C//DTD SVG 1.1//EN" "http://www.w3.org/Graphics/SVG/1.1/DTD/svg11.dtd"><svg t="1610586043750" class="icon" viewBox="0 0 1152 1024" version="1.1" xmlns="http://www.w3.org/2000/svg" p-id="4387" xmlns:xlink="http://www.w3.org/1999/xlink" width="36" height="32"><defs><style type="text/css"></style></defs><path d="M853.333333 110.364444v-85.333333h-56.888889v9.102222A34.133333 34.133333 0 0 0 762.311111 0H91.022222A34.133333 34.133333 0 0 0 56.888889 34.133333V25.031111H0v85.333333h56.888889v166.684445H0v85.333333h56.888889V540.444444H0v85.333334h56.888889v173.226666H0v85.333334h56.888889v-8.248889A34.133333 34.133333 0 0 0 91.022222 910.222222h671.288889a34.133333 34.133333 0 0 0 34.133333-34.133333v9.102222h56.888889v-85.333333h-56.888889V625.777778h56.888889v-85.333334h-56.888889v-178.062222h56.888889v-85.333333h-56.888889V110.364444zM739.555556 56.888889v234.097778H113.777778V56.888889z m0 290.986667v207.644444H113.777778v-207.644444zM113.777778 853.333333v-240.924444h625.777778V853.333333z" fill="#1afa29" p-id="4388"></path></svg>