<?xml version="1.0" standalone="no"?><!DOCTYPE svg PUBLIC "-//W3C//DTD SVG 1.1//EN" "http://www.w3.org/Graphics/SVG/1.1/DTD/svg11.dtd"><svg t="1610585698135" class="icon" viewBox="0 0 1433 1024" version="1.1" xmlns="http://www.w3.org/2000/svg" p-id="2083" width="44.78125" height="32" xmlns:xlink="http://www.w3.org/1999/xlink"><defs><style type="text/css"></style></defs><path d="M143.36 645.9392h1146.88v-573.44a71.68 71.68 0 0 1 143.36 0v860.16a71.4752 71.4752 0 0 1-71.68 71.68H71.68a71.68 71.68 0 0 1-71.68-71.68v-860.16a71.68 71.68 0 1 1 143.36 0v573.44z m512.3072-127.5904l-37.6832-33.792a30.8224 30.8224 0 0 0-42.3936 0l-37.6832 33.792a96.8704 96.8704 0 0 1-133.5296 0l-37.6832-33.792a30.8224 30.8224 0 0 0-42.3936 0l-48.7424 44.032c-16.5888 15.0528-40.2432 11.1616-52.8384-8.6016a51.2 51.2 0 0 1 7.168-63.0784l48.7424-44.032a97.0752 97.0752 0 0 1 133.5296 0l37.5808 33.6896c11.9808 11.264 30.72 11.264 42.5984 0l37.5808-33.792a96.9728 96.9728 0 0 1 133.5296 0l37.6832 33.792c11.8784 11.264 30.5152 11.264 42.3936 0l37.6832-33.792a96.9728 96.9728 0 0 1 133.5296 0l37.6832 33.792c11.8784 11.264 30.5152 11.264 42.3936 0l37.6832-33.792a97.0752 97.0752 0 0 1 133.5296 0l37.5808 33.792a50.9952 50.9952 0 0 1 7.2704 63.0784c-12.4928 19.8656-36.2496 23.552-52.8384 8.6016l-37.6832-33.792a30.8224 30.8224 0 0 0-42.3936 0l-37.7856 33.792a96.6656 96.6656 0 0 1-133.4272 0l-37.6832-33.792a30.8224 30.8224 0 0 0-42.496 0l-37.5808 33.792a98.816 98.816 0 0 1-66.56 26.624 99.9424 99.9424 0 0 1-66.7648-26.624z m0-255.488l-37.6832-33.792a30.8224 30.8224 0 0 0-42.3936 0l-37.6832 33.792a96.8704 96.8704 0 0 1-133.5296 0l-37.6832-33.792a30.8224 30.8224 0 0 0-42.3936 0l-48.7424 44.032c-16.5888 15.0528-40.2432 11.1616-52.8384-8.4992a51.2 51.2 0 0 1 7.168-63.0784l48.7424-44.032a96.9728 96.9728 0 0 1 133.5296 0l37.5808 33.6896c11.9808 11.264 30.72 11.264 42.5984 0l37.5808-33.792a96.8704 96.8704 0 0 1 133.5296 0l37.6832 33.792c11.8784 11.264 30.5152 11.264 42.3936 0l37.6832-33.792a96.8704 96.8704 0 0 1 133.5296 0l37.6832 33.792c11.8784 11.264 30.5152 11.264 42.3936 0l37.6832-33.792a96.9728 96.9728 0 0 1 133.5296 0l37.5808 33.792a50.9952 50.9952 0 0 1 7.2704 63.0784c-12.4928 19.7632-36.2496 23.552-52.8384 8.6016l-37.6832-33.792a30.8224 30.8224 0 0 0-42.3936 0l-37.7856 33.792a96.8704 96.8704 0 0 1-133.4272 0l-37.6832-33.792a30.8224 30.8224 0 0 0-42.496 0l-37.5808 33.792a98.816 98.816 0 0 1-66.56 26.624 100.352 100.352 0 0 1-66.7648-26.624z" fill="#1afa29" p-id="2084"></path></svg>